# xmcd CD database file
#
# Track frame offsets:
#	182
#	15040
#	30152
#	43875
#	57985
#	70165
#	84545
#	99027
#	112390
#	127115
#	140530
#	153862
#	167772
#	180152
#	194457
#	209245
#	222635
#	237412
#	252827
#	268117
#	281097
#	293872
#	308577
#	323887
#	338292
#
# Disc length: 4700 seconds
#
# Revision: 0
# Processed by: cddbd v1.5.1PL2 Copyright (c) Steve Scherf et al.
# Submitted via: CDex 1.51
#
DISCID=6d125a19
DTITLE=Billie Holiday - Lover Man
DYEAR=1900
DGENRE=Jazz
TTITLE0=Lover Man
TTITLE1='Tain't Nobody's Bizness If I Do
TTITLE2=The Blues Are Brewin'
TTITLE3=Good Morning Heartache
TTITLE4=You Better Go Now
TTITLE5=Baby, I Don't Cry Over You
TTITLE6=Easy Living
TTITLE7=My Man
TTITLE8=Keeps On Rainin'
TTITLE9=There Is No Greater Love
TTITLE10=I Love You Porgy
TTITLE11=Crazy He Calls Me
TTITLE12=Gimme A Pigfoot And A Bottle Of Beer
TTITLE13=Solitude
TTITLE14=Now Or Never
TTITLE15=Somebody's On My Mind
TTITLE16=Do Your Duty
TTITLE17=You're My Thrill
TTITLE18=No Good Man
TTITLE19=Guilty
TTITLE20=Them There Eyes
TTITLE21=Baby Get Lost
TTITLE22=Don't Explain
TTITLE23=Deep Song
TTITLE24=God Bless The Child
EXTD=
EXTT0=
EXTT1=
EXTT2=
EXTT3=
EXTT4=
EXTT5=
EXTT6=
EXTT7=
EXTT8=
EXTT9=
EXTT10=
EXTT11=
EXTT12=
EXTT13=
EXTT14=
EXTT15=
EXTT16=
EXTT17=
EXTT18=
EXTT19=
EXTT20=
EXTT21=
EXTT22=
EXTT23=
EXTT24=
PLAYORDER=
